PathFileType	4	(X/Y/Z)	C:/Users/beibeiliu/ov580/test_trc/User3\sequence.34_training_dense_left.trc
DataRate	CameraRate	NumFrames	NumMarkers	Units	OrigDataRate	OrigDataStartFrame	OrigNumFrames
120	120	9	19	mm	120	56	83
Frame#	Time	ThumbCMC			ThumbMCP			ThumbIP			ThumbTip			IndexMCP			IndexPIP			IndexTip			MiddleMCP			MiddlePIP			MiddleTip			RingMCP			RingPIP			RingTip			PinkyMCP			PinkyPIP			PinkyTip			BackHand1			BackHand2			BackHand3	
		X0	Y0	Z0	X1	Y1	Z1	X2	Y2	Z2	X3	Y3	Z3	X4	Y4	Z4	X5	Y5	Z5	X6	Y6	Z6	X7	Y7	Z7	X8	Y8	Z8	X9	Y9	Z9	X10	Y10	Z10	X11	Y11	Z11	X12	Y12	Z12	X13	Y13	Z13	X14	Y14	Z14	X15	Y15	Z15	X16	Y16	Z16	X17	Y17	Z17	X18	Y18	Z18	
55	0.458333	-139.043	11.5219	10.509	-136.692	23.0009	-19.9808	-129.32	20.8906	-47.2995	-117.862	14.5542	-70.8294	-139.2	-18.2625	-59.7894	-113.796	-12.4927	-82.7517	-85.5393	-1.80025	-77.2178	-128.051	-35.3003	-62.4462	-98.0142	-25.533	-78.1119	-70.1654	-14.9656	-58.7577	-119.603	-49.5958	-48.1292	-85.5166	-43.1762	-59.9604	-67.3871	-26.1572	-44.4887	-108.338	-65.6424	-34.5108	-87.5652	-55.923	-46.3235	-65.5842	-34.2047	-33.2789	-147.645	-48.6465	0.984153	-148.859	-44.0809	29.1764	-159.471	-17.1978	9.66483	
56	0.466667	-138.651	14.1716	9.04257	-133.533	24.419	-19.7092	-127.38	24.0275	-49.6104	-117.095	17.2125	-69.7863	-141.06	-13.1214	-62.2115	-115.41	-6.643	-81.0548	-89.066	3.0679	-69.599	-130.313	-32.9923	-63.9612	-98.5575	-25.5009	-74.5315	-73.8714	-14.5878	-47.6752	-122.325	-47.9008	-47.8994	-88.99	-41.1814	-57.6584	-73.1294	-22.0104	-37.5506	-115.81	-61.7523	-33.1309	-92.2213	-54.7931	-46.6437	-71.7943	-35.0477	-30.2309	-150.352	-51.134	-1.78029	-150.994	-45.0588	33.0353	-158.832	-13.0929	6.37301	
57	0.475	-137.817	13.6522	12.816	-132.379	21.433	-16.5668	-126.964	19.8374	-48.6929	-119.397	16.4435	-68.9234	-141.712	-11.4766	-63.1364	-114.072	-7.78983	-76.5288	-92.4787	2.90303	-55.2099	-134.383	-33.7406	-62.7462	-105.561	-26.5927	-73.0105	-83.5184	-13.8119	-38.4058	-124.198	-46.4461	-51.8235	-94.7179	-38.6923	-57.7158	-80.6804	-24.5181	-34.7617	-119.202	-62.4423	-34.5997	-91.7969	-53.228	-44.3524	-77.2162	-35.8412	-26.394	-152.335	-48.8189	1.70999	-154.769	-40.1067	31.0206	-162.029	-13.591	10.2006	
58	0.483333	-140.034	17.5132	12.7829	-133.846	22.4512	-16.5432	-129.935	26.9975	-44.553	-123.25	22.8977	-69.9958	-144.214	-11.9584	-59.8476	-114.726	-7.4253	-73.4006	-94.644	1.15774	-44.4004	-137.173	-33.7794	-59.4697	-102.834	-24.3914	-67.2893	-88.7826	-13.4514	-32.7564	-129.001	-48.1626	-48.478	-96.904	-40.5444	-54.3127	-84.4254	-26.2725	-31.3004	-122.041	-63.3344	-35.5296	-97.8208	-52.8008	-44.2763	-83.613	-35.3723	-20.8941	-157.242	-45.324	-1.23145	-154.993	-42.02	32.9883	-163.917	-14.5037	9.33923	
59	0.491667	-138.519	18.5896	13.9629	-133.639	25.1678	-16.0166	-129.643	28.6684	-44.6044	-121.967	21.0787	-68.5579	-140.171	-9.57594	-63.5487	-109.579	-2.4323	-71.4194	-93.9719	-0.0266321	-47.1402	-133.66	-33.5344	-62.0259	-103.92	-24.5672	-68.7768	-87.8529	-17.9026	-33.0102	-125.912	-47.634	-50.8274	-95.6519	-38.2433	-53.4782	-83.2816	-26.4215	-24.081	-122.668	-62.5807	-33.6115	-93.9345	-52.1391	-41.695	-85.31	-38.4108	-21.6702	-155.83	-49.0095	3.9516	-155.344	-43.7053	32.5056	-163.41	-10.1116	8.95155	
60	0.5	-134.622	17.9987	13.4666	-128.534	23.0485	-16.167	-122.813	23.8463	-49.9769	-115.803	14.3989	-68.0921	-139.365	-11.7504	-58.4174	-108.087	-9.15837	-72.5032	-89.1296	-3.31237	-42.1141	-131.988	-30.1756	-61.4236	-100.948	-27.4225	-67.2538	-84.0931	-14.2087	-29.5777	-124.325	-48.7235	-49.4148	-92.6955	-43.7139	-51.2585	-81.8683	-28.6721	-26.0568	-121.209	-61.9416	-34.5045	-93.827	-56.9326	-41.5574	-79.1597	-41.4633	-21.2865	-155.16	-45.9054	-1.11181	-153.535	-39.8799	33.4746	-157.969	-14.2096	9.67085	
61	0.508333	-131.743	15.9663	10.9452	-123.772	20.6387	-18.3618	-117.823	20.3373	-48.0371	-111.855	13.7564	-72.375	-135.656	-16.6937	-58.0377	-102.531	-13.131	-69.2359	-87.7904	-2.43959	-40.4065	-127.391	-34.2444	-60.7858	-94.8374	-30.6619	-62.4628	-83.2702	-18.2413	-27.2057	-122.083	-53.9508	-45.8542	-91.2722	-45.561	-49.8206	-81.0964	-32.9251	-19.6057	-118.043	-68.5518	-34.3802	-91.7392	-58.8462	-40.1399	-81.2405	-41.7538	-20.3422	-153.509	-48.9236	-0.524345	-152.59	-41.6972	30.572	-159.575	-9.66764	10.3178	
62	0.516667	-132.899	14.3659	12.1808	-127.161	18.5325	-20.1096	-121.934	20.9073	-44.8899	-117.589	18.1	-71.4804	-132.013	-17.1482	-60.5813	-101.382	-13.0475	-68.1066	-87.0566	-7.28352	-35.5546	-127.833	-36.3468	-58.7365	-93.2939	-29.3555	-61.9193	-81.0113	-22.2355	-26.9263	-120.682	-54.8683	-47.0526	-92.0018	-46.927	-50.9244	-81.3569	-32.6374	-19.3528	-119.363	-69.0917	-32.5552	-92.0541	-61.8222	-39.3334	-78.4147	-43.2236	-18.388	-156.095	-47.0516	4.0337	-153.866	-40.2879	31.2609	-158.812	-13.0974	9.11719	
63	0.525	-133.683	14.1296	12.6243	-128.984	24.1768	-15.6436	-124.435	28.7388	-42.9277	-117.511	26.8088	-67.8558	-132.336	-15.8898	-59.9213	-99.6422	-13.305	-68.8306	-83.0261	-5.98188	-40.7923	-126.296	-37.2869	-60.1368	-95.5682	-31.4798	-65.3048	-78.5728	-19.5809	-30.6409	-123.912	-53.3357	-45.894	-91.5083	-47.1899	-51.6706	-78.1997	-35.963	-24.0026	-121.529	-66.6035	-31.657	-92.3508	-63.3411	-39.5972	-78.444	-41.8501	-22.1519	-155.17	-45.551	1.80638	-155.15	-45.0466	33.9446	-159.904	-12.3801	6.86071	
